<svg width="214" height="179" viewBox="0 0 214 179" fill="none" xmlns="http://www.w3.org/2000/svg">
<g clip-path="url(#clip0_4_83)">
<g clip-path="url(#clip1_4_83)">
<path d="M148.978 119.346C148.896 119.33 140.605 117.534 134.333 106.145C129.386 97.162 131.548 86.1906 132.709 81.8909C133.187 80.1218 132.963 78.264 132.082 76.6643C131.029 74.7528 129.106 73.4276 126.94 73.1221C104.823 69.9927 92.1391 51.875 86.5467 41.3558C83.8584 36.2984 78.0812 33.6211 72.495 34.8432L66.8965 36.0693C66.3297 36.1932 65.8799 36.6287 65.7341 37.1943C65.5698 37.8342 61.8628 53.1755 76.7278 80.1611C87.1813 99.1395 95.9262 106.104 100.385 108.606L95.6181 111.259C94.8746 111.673 94.6056 112.615 95.0163 113.364L112.8 145.648C112.997 146.008 113.33 146.274 113.722 146.387C114.114 146.501 114.535 146.453 114.892 146.253L122.409 142.071C123.471 141.481 124.12 140.428 124.247 139.301C126.87 138.987 129.433 138.162 131.743 136.876L142.275 131.015C146.795 128.499 149.935 121.803 150.067 121.52C150.266 121.09 150.258 120.591 150.044 120.168C149.831 119.745 149.436 119.443 148.974 119.348L148.978 119.346Z" fill="#FF5D5D"/>
<path d="M196.543 89C196.543 76.8521 194.175 65.0654 189.505 53.9661C184.995 43.2486 178.54 33.6232 170.317 25.3601C162.094 17.097 152.519 10.6071 141.856 6.07408C130.813 1.38005 119.086 -1 107 -1C94.9137 -1 83.1868 1.38005 72.1438 6.07408C61.4808 10.6071 51.9042 17.097 43.6831 25.3601C35.4619 33.6232 29.005 43.2486 24.495 53.9661C19.8248 65.0654 17.4568 76.8521 17.4568 89C17.4568 101.148 19.8248 112.935 24.495 124.034C29.005 134.751 35.4599 144.377 43.6831 152.64C51.9063 160.903 61.4808 167.393 72.1438 171.926C83.1868 176.62 94.9137 179 107 179C119.086 179 130.813 176.62 141.856 171.926C152.519 167.393 162.096 160.905 170.317 152.64C178.538 144.375 184.995 134.751 189.505 124.034C194.175 112.935 196.543 101.148 196.543 89ZM181.181 120.496C177.127 130.132 171.321 138.785 163.926 146.218C156.53 153.651 147.921 159.487 138.334 163.562C128.412 167.779 117.868 169.919 106.998 169.919C96.1275 169.919 85.5856 167.781 75.6619 163.562C66.075 159.487 57.4657 153.651 50.0702 146.218C42.6747 138.785 36.8688 130.132 32.8147 120.496C28.6189 110.524 26.4891 99.9259 26.4891 89C26.4891 78.0741 28.6168 67.4784 32.8147 57.5041C36.8688 47.8684 42.6747 39.2151 50.0702 31.7819C57.4657 24.3486 66.075 18.5131 75.6619 14.4383C85.5835 10.219 96.1275 8.0805 106.998 8.0805C117.868 8.0805 128.41 10.219 138.334 14.4383C147.921 18.5131 156.53 24.3486 163.926 31.7819C171.321 39.2151 177.127 47.8684 181.181 57.5041C185.377 67.4764 187.507 78.0741 187.507 89C187.507 99.9259 185.379 110.522 181.181 120.496Z" fill="#FF5D5D"/>
<path d="M64.923 76.8396L64.9867 76.8189L63.0808 70.9297L63.0438 70.9421L58.9322 58.0283L53.0647 59.9171L57.1866 72.8597L49.6308 75.3306C49.6308 75.3306 49.6144 75.3368 49.6083 75.3389C48.4335 75.7331 47.1766 75.6403 46.0738 75.0747C44.9688 74.5091 44.1556 73.5451 43.7797 72.3499L38.9596 57.2026C38.8857 57.31 38.8117 57.4173 38.7398 57.5267C38.0703 58.532 37.4296 59.562 36.8689 60.6334C36.7333 60.8935 36.604 61.1577 36.4766 61.4219C36.4581 61.4611 36.4376 61.5169 36.4191 61.5726C36.3144 61.9937 36.0659 63.096 36.1747 62.1052C36.1316 62.4932 36.0351 62.8648 35.8872 63.2054C35.7373 63.8763 35.3655 64.3799 34.8809 64.7164L37.9081 74.2283C38.785 77.0088 40.693 79.2691 43.2786 80.5923C43.905 80.9123 44.5499 81.1682 45.2091 81.3581C47.2711 81.9547 49.4624 81.9114 51.5449 81.2157L59.0616 78.7572L62.9822 91.0703L68.8498 89.1836L64.921 76.8437L64.923 76.8396Z" fill="#FF5D5D"/>
<path d="M186.494 17.0145L183.469 13.6416L176.757 19.7228L179.782 23.0957C196.021 41.1989 204.963 64.6051 204.963 89.0001C204.963 113.395 196.021 136.799 179.782 154.904L176.757 158.277L183.469 164.359L186.494 160.986C204.232 141.21 214 115.645 214 89.0001C214 62.3551 204.232 36.7898 186.494 17.0145Z" fill="#FF5D5D"/>
<path d="M9.03647 89.0001C9.03647 64.6051 17.9785 41.201 34.2174 23.0957L37.2426 19.7228L30.5309 13.6416L27.5058 17.0145C9.7676 36.7898 0 62.3551 0 89.0001C0 115.645 9.7676 141.21 27.5058 160.986L30.5309 164.359L37.2426 158.277L34.2174 154.904C17.9785 136.801 9.03647 113.395 9.03647 89.0001Z" fill="#FF5D5D"/>
</g>
</g>
<defs>
<clipPath id="clip0_4_83">
<rect width="214" height="179" fill="white"/>
</clipPath>
<clipPath id="clip1_4_83">
<rect width="214" height="180" fill="white" transform="translate(0 -1)"/>
</clipPath>
</defs>
</svg>
