<svg width="214" height="179" viewBox="0 0 214 179" fill="none" xmlns="http://www.w3.org/2000/svg">
<g clip-path="url(#clip0_4_147)">
<path d="M163.433 107.999C163.349 108.006 154.887 108.576 145.731 99.4251C138.508 92.2055 137.574 81.1207 137.508 76.6908C137.482 74.868 136.757 73.154 135.469 71.8669C133.933 70.3314 131.719 69.5945 129.554 69.9003C107.437 73.0123 90.2681 59.1973 82.0059 50.6866C78.034 46.5954 71.7433 45.6307 66.7117 48.3403L61.6677 51.0581C61.1563 51.3332 60.8441 51.8731 60.8585 52.454C60.8749 53.1109 61.528 68.796 83.2279 90.4874C98.4892 105.741 108.807 109.984 113.779 111.146L109.927 114.995C109.325 115.597 109.325 116.572 109.927 117.173L135.888 143.122C136.177 143.411 136.568 143.574 136.976 143.574C137.385 143.574 137.777 143.411 138.065 143.122L144.14 137.05C144.998 136.192 145.333 135.007 145.146 133.895C147.582 132.873 149.816 131.376 151.685 129.508L160.198 121C163.852 117.348 165.028 110.081 165.078 109.773C165.152 109.307 165.006 108.833 164.685 108.488C164.365 108.143 163.903 107.962 163.433 108.001V107.999Z" fill="#89FFA6"/>
<path d="M196.543 89.5C196.543 77.4195 194.175 65.6983 189.505 54.6607C184.995 44.0028 178.54 34.4308 170.317 26.2136C162.094 17.9965 152.519 11.5426 141.856 7.03478C130.813 2.36682 119.086 0 107 0C94.9137 0 83.1868 2.36682 72.1439 7.03478C61.4808 11.5426 51.9042 17.9965 43.6831 26.2136C35.462 34.4308 29.005 44.0028 24.495 54.6607C19.8248 65.6983 17.4568 77.4195 17.4568 89.5C17.4568 101.58 19.8248 113.302 24.495 124.339C29.005 134.997 35.4599 144.569 43.6831 152.786C51.9063 161.004 61.4808 167.457 72.1439 171.965C83.1868 176.633 94.9137 179 107 179C119.086 179 130.813 176.633 141.856 171.965C152.519 167.457 162.096 161.006 170.317 152.786C178.538 144.567 184.995 134.997 189.505 124.339C194.175 113.302 196.543 101.58 196.543 89.5ZM181.181 120.821C177.127 130.403 171.321 139.008 163.926 146.4C156.53 153.792 147.921 159.595 138.334 163.647C128.412 167.841 117.868 169.97 106.998 169.97C96.1275 169.97 85.5856 167.843 75.6619 163.647C66.075 159.595 57.4658 153.792 50.0702 146.4C42.6747 139.008 36.8688 130.403 32.8147 120.821C28.6189 110.904 26.4891 100.365 26.4891 89.5C26.4891 78.6348 28.6168 68.098 32.8147 58.1791C36.8688 48.5969 42.6747 39.9917 50.0702 32.5998C57.4658 25.2078 66.075 19.4047 75.6619 15.3525C85.5835 11.1567 96.1275 9.03006 106.998 9.03006C117.868 9.03006 128.41 11.1567 138.334 15.3525C147.921 19.4047 156.53 25.2078 163.926 32.5998C171.321 39.9917 177.127 48.5969 181.181 58.1791C185.377 68.096 187.507 78.6348 187.507 89.5C187.507 100.365 185.379 110.902 181.181 120.821Z" fill="#89FFA6"/>
<path d="M71.0246 90.5325L67.5743 85.4294L67.5435 85.4499L60.0432 74.2419L54.9212 77.6659L62.4379 88.8985L55.8556 93.3448C55.8556 93.3448 55.8413 93.353 55.8351 93.3592C54.8144 94.0612 53.5822 94.3178 52.3663 94.0817C51.1505 93.8457 50.1031 93.1498 49.4131 92.1111L35.0595 70.6516C34.3304 73.4536 33.7635 76.3049 33.3651 79.1972L44.2869 95.5269C45.8929 97.943 48.3472 99.5769 51.1978 100.129C51.8878 100.263 52.5779 100.328 53.2638 100.328C55.41 100.328 57.5028 99.6837 59.3142 98.4438L65.8635 94.0201L73.0147 104.705L78.1367 101.281L70.9691 90.5715L71.0246 90.5346V90.5325Z" fill="#89FFA6"/>
<path d="M186.494 17.9143L183.469 14.5601L176.757 20.6075L179.783 23.9617C196.022 41.9643 204.964 65.2405 204.964 89.4999C204.964 113.759 196.022 137.033 179.783 155.038L176.757 158.392L183.469 164.44L186.494 161.086C204.232 141.42 214 115.997 214 89.4999C214 63.003 204.232 37.5796 186.494 17.9143Z" fill="#89FFA6"/>
<path d="M9.03647 89.4999C9.03647 65.2405 17.9785 41.9664 34.2174 23.9617L37.2426 20.6075L30.5309 14.5601L27.5058 17.9143C9.7676 37.5796 0 63.003 0 89.4999C0 115.997 9.7676 141.42 27.5058 161.086L30.5309 164.44L37.2426 158.392L34.2174 155.038C17.9785 137.035 9.03647 113.759 9.03647 89.4999Z" fill="#89FFA6"/>
</g>
<defs>
<clipPath id="clip0_4_147">
<rect width="214" height="179" fill="white"/>
</clipPath>
</defs>
</svg>
